<mxfile host="Electron" modified="2024-04-09T08:49:53.504Z" agent="Mozilla/5.0 (Windows NT 10.0; Win64; x64) AppleWebKit/537.36 (KHTML, like Gecko) draw.io/22.1.16 Chrome/120.0.6099.109 Electron/28.1.0 Safari/537.36" etag="BWTJnCIXWtmOVBtKCm8c" version="22.1.16" type="device">
  <diagram name="Page-1" id="9KK9zCkutjYJ6-uwmnWF">
    <mxGraphModel dx="913" dy="555" grid="1" gridSize="10" guides="1" tooltips="1" connect="1" arrows="1" fold="1" page="1" pageScale="1" pageWidth="850" pageHeight="1100" math="0" shadow="0">
      <root>
        <mxCell id="0" />
        <mxCell id="1" parent="0" />
        <mxCell id="oYbW9BHKW6rPGXkPSTbu-1" value="" style="shape=umlLifeline;perimeter=lifelinePerimeter;whiteSpace=wrap;html=1;container=1;dropTarget=0;collapsible=0;recursiveResize=0;outlineConnect=0;portConstraint=eastwest;newEdgeStyle={&quot;curved&quot;:0,&quot;rounded&quot;:0};participant=umlActor;" parent="1" vertex="1">
          <mxGeometry x="70" y="80" width="20" height="880" as="geometry" />
        </mxCell>
        <mxCell id="oYbW9BHKW6rPGXkPSTbu-2" value="" style="html=1;points=[[0,0,0,0,5],[0,1,0,0,-5],[1,0,0,0,5],[1,1,0,0,-5]];perimeter=orthogonalPerimeter;outlineConnect=0;targetShapes=umlLifeline;portConstraint=eastwest;newEdgeStyle={&quot;curved&quot;:0,&quot;rounded&quot;:0};" parent="oYbW9BHKW6rPGXkPSTbu-1" vertex="1">
          <mxGeometry x="5" y="70" width="10" height="730" as="geometry" />
        </mxCell>
        <mxCell id="oYbW9BHKW6rPGXkPSTbu-3" value="Actor" style="text;html=1;strokeColor=none;fillColor=none;align=center;verticalAlign=middle;whiteSpace=wrap;rounded=0;" parent="1" vertex="1">
          <mxGeometry x="50" y="50" width="60" height="30" as="geometry" />
        </mxCell>
        <mxCell id="oYbW9BHKW6rPGXkPSTbu-4" value="" style="shape=umlLifeline;perimeter=lifelinePerimeter;whiteSpace=wrap;html=1;container=1;dropTarget=0;collapsible=0;recursiveResize=0;outlineConnect=0;portConstraint=eastwest;newEdgeStyle={&quot;curved&quot;:0,&quot;rounded&quot;:0};participant=umlBoundary;" parent="1" vertex="1">
          <mxGeometry x="190" y="80" width="50" height="750" as="geometry" />
        </mxCell>
        <mxCell id="oYbW9BHKW6rPGXkPSTbu-5" value="" style="html=1;points=[[0,0,0,0,5],[0,1,0,0,-5],[1,0,0,0,5],[1,1,0,0,-5]];perimeter=orthogonalPerimeter;outlineConnect=0;targetShapes=umlLifeline;portConstraint=eastwest;newEdgeStyle={&quot;curved&quot;:0,&quot;rounded&quot;:0};" parent="oYbW9BHKW6rPGXkPSTbu-4" vertex="1">
          <mxGeometry x="20" y="80" width="10" height="640" as="geometry" />
        </mxCell>
        <mxCell id="oYbW9BHKW6rPGXkPSTbu-8" value="ManageOrderPage" style="text;html=1;strokeColor=none;fillColor=none;align=center;verticalAlign=middle;whiteSpace=wrap;rounded=0;" parent="1" vertex="1">
          <mxGeometry x="190" y="50" width="60" height="30" as="geometry" />
        </mxCell>
        <mxCell id="oYbW9BHKW6rPGXkPSTbu-9" value="Press Accept Order" style="html=1;verticalAlign=bottom;startArrow=none;endArrow=block;startSize=8;curved=0;rounded=0;entryX=0;entryY=0;entryDx=0;entryDy=5;startFill=0;" parent="1" edge="1">
          <mxGeometry relative="1" as="geometry">
            <mxPoint x="85" y="220.00000000000193" as="sourcePoint" />
            <mxPoint x="210" y="220.00000000000193" as="targetPoint" />
          </mxGeometry>
        </mxCell>
        <mxCell id="oYbW9BHKW6rPGXkPSTbu-10" value="send order id" style="html=1;verticalAlign=bottom;startArrow=none;endArrow=block;startSize=8;curved=0;rounded=0;entryX=0;entryY=0.063;entryDx=0;entryDy=0;entryPerimeter=0;startFill=0;" parent="1" edge="1">
          <mxGeometry x="-0.0401" y="1" relative="1" as="geometry">
            <mxPoint x="220" y="260" as="sourcePoint" />
            <mxPoint x="345" y="261.41999999999996" as="targetPoint" />
            <mxPoint as="offset" />
          </mxGeometry>
        </mxCell>
        <mxCell id="oYbW9BHKW6rPGXkPSTbu-11" value="" style="shape=umlLifeline;perimeter=lifelinePerimeter;whiteSpace=wrap;html=1;container=1;dropTarget=0;collapsible=0;recursiveResize=0;outlineConnect=0;portConstraint=eastwest;newEdgeStyle={&quot;curved&quot;:0,&quot;rounded&quot;:0};participant=umlControl;" parent="1" vertex="1">
          <mxGeometry x="330" y="80" width="40" height="750" as="geometry" />
        </mxCell>
        <mxCell id="oYbW9BHKW6rPGXkPSTbu-12" value="" style="html=1;points=[[0,0,0,0,5],[0,1,0,0,-5],[1,0,0,0,5],[1,1,0,0,-5]];perimeter=orthogonalPerimeter;outlineConnect=0;targetShapes=umlLifeline;portConstraint=eastwest;newEdgeStyle={&quot;curved&quot;:0,&quot;rounded&quot;:0};" parent="oYbW9BHKW6rPGXkPSTbu-11" vertex="1">
          <mxGeometry x="15" y="180" width="10" height="520" as="geometry" />
        </mxCell>
        <mxCell id="oYbW9BHKW6rPGXkPSTbu-15" value="OrderController" style="text;html=1;strokeColor=none;fillColor=none;align=center;verticalAlign=middle;whiteSpace=wrap;rounded=0;" parent="1" vertex="1">
          <mxGeometry x="330" y="50" width="60" height="30" as="geometry" />
        </mxCell>
        <mxCell id="oYbW9BHKW6rPGXkPSTbu-16" value="OrderService" style="shape=umlLifeline;perimeter=lifelinePerimeter;whiteSpace=wrap;html=1;container=1;dropTarget=0;collapsible=0;recursiveResize=0;outlineConnect=0;portConstraint=eastwest;newEdgeStyle={&quot;curved&quot;:0,&quot;rounded&quot;:0};" parent="1" vertex="1">
          <mxGeometry x="425" y="80" width="100" height="750" as="geometry" />
        </mxCell>
        <mxCell id="oYbW9BHKW6rPGXkPSTbu-17" value="" style="html=1;points=[[0,0,0,0,5],[0,1,0,0,-5],[1,0,0,0,5],[1,1,0,0,-5]];perimeter=orthogonalPerimeter;outlineConnect=0;targetShapes=umlLifeline;portConstraint=eastwest;newEdgeStyle={&quot;curved&quot;:0,&quot;rounded&quot;:0};" parent="oYbW9BHKW6rPGXkPSTbu-16" vertex="1">
          <mxGeometry x="45" y="265" width="10" height="415" as="geometry" />
        </mxCell>
        <mxCell id="1NALEkTZ1CZepBtCz4jT-1" value="" style="html=1;points=[[0,0,0,0,5],[0,1,0,0,-5],[1,0,0,0,5],[1,1,0,0,-5]];perimeter=orthogonalPerimeter;outlineConnect=0;targetShapes=umlLifeline;portConstraint=eastwest;newEdgeStyle={&quot;curved&quot;:0,&quot;rounded&quot;:0};" parent="oYbW9BHKW6rPGXkPSTbu-16" vertex="1">
          <mxGeometry x="50" y="410" width="10" height="40" as="geometry" />
        </mxCell>
        <mxCell id="1NALEkTZ1CZepBtCz4jT-2" value="changeStateOrder&lt;br&gt;(&quot;cancel&quot;)" style="html=1;align=left;spacingLeft=2;endArrow=block;rounded=0;edgeStyle=orthogonalEdgeStyle;curved=0;rounded=0;" parent="oYbW9BHKW6rPGXkPSTbu-16" target="1NALEkTZ1CZepBtCz4jT-1" edge="1">
          <mxGeometry relative="1" as="geometry">
            <mxPoint x="55" y="390" as="sourcePoint" />
            <Array as="points">
              <mxPoint x="85" y="420" />
            </Array>
          </mxGeometry>
        </mxCell>
        <mxCell id="oYbW9BHKW6rPGXkPSTbu-18" value="cancleOrder(orderId)" style="html=1;verticalAlign=bottom;startArrow=none;endArrow=block;startSize=8;curved=0;rounded=0;entryX=0;entryY=0;entryDx=0;entryDy=5;startFill=0;" parent="1" source="oYbW9BHKW6rPGXkPSTbu-12" target="oYbW9BHKW6rPGXkPSTbu-17" edge="1">
          <mxGeometry relative="1" as="geometry">
            <mxPoint x="435" y="350" as="sourcePoint" />
          </mxGeometry>
        </mxCell>
        <mxCell id="oYbW9BHKW6rPGXkPSTbu-39" value="" style="shape=cylinder3;whiteSpace=wrap;html=1;boundedLbl=1;backgroundOutline=1;size=7.833343505859418;" parent="1" vertex="1">
          <mxGeometry x="780" y="80" width="37.5" height="40" as="geometry" />
        </mxCell>
        <mxCell id="oYbW9BHKW6rPGXkPSTbu-40" value="" style="endArrow=none;dashed=1;html=1;rounded=0;entryX=0.5;entryY=1;entryDx=0;entryDy=0;entryPerimeter=0;" parent="1" source="mhscMTKuZYYwsaxTIH_v-7" edge="1">
          <mxGeometry width="50" height="50" relative="1" as="geometry">
            <mxPoint x="801" y="1001" as="sourcePoint" />
            <mxPoint x="801" y="121" as="targetPoint" />
          </mxGeometry>
        </mxCell>
        <mxCell id="oYbW9BHKW6rPGXkPSTbu-41" value="Database" style="text;html=1;strokeColor=none;fillColor=none;align=center;verticalAlign=middle;whiteSpace=wrap;rounded=0;" parent="1" vertex="1">
          <mxGeometry x="768.75" y="50" width="60" height="30" as="geometry" />
        </mxCell>
        <mxCell id="oYbW9BHKW6rPGXkPSTbu-42" value="" style="shape=umlDestroy;whiteSpace=wrap;html=1;strokeWidth=3;targetShapes=umlLifeline;" parent="1" vertex="1">
          <mxGeometry x="783.75" y="750" width="30" height="30" as="geometry" />
        </mxCell>
        <mxCell id="mhscMTKuZYYwsaxTIH_v-3" value="findOrder(orderId)" style="html=1;verticalAlign=bottom;endArrow=block;curved=0;rounded=0;" parent="1" edge="1">
          <mxGeometry width="80" relative="1" as="geometry">
            <mxPoint x="481.5" y="400" as="sourcePoint" />
            <mxPoint x="796.5" y="400" as="targetPoint" />
          </mxGeometry>
        </mxCell>
        <mxCell id="mhscMTKuZYYwsaxTIH_v-9" value="return order" style="html=1;verticalAlign=bottom;endArrow=open;dashed=1;endSize=8;curved=0;rounded=0;" parent="1" edge="1">
          <mxGeometry relative="1" as="geometry">
            <mxPoint x="793.75" y="439.5" as="sourcePoint" />
            <mxPoint x="481.5" y="439.5" as="targetPoint" />
          </mxGeometry>
        </mxCell>
        <mxCell id="6Z-OR4mqL3u61Qj2kpZO-2" value="" style="endArrow=none;dashed=1;html=1;rounded=0;entryX=0.5;entryY=1;entryDx=0;entryDy=0;entryPerimeter=0;" parent="1" target="mhscMTKuZYYwsaxTIH_v-7" edge="1">
          <mxGeometry width="50" height="50" relative="1" as="geometry">
            <mxPoint x="800" y="760" as="sourcePoint" />
            <mxPoint x="801" y="121" as="targetPoint" />
          </mxGeometry>
        </mxCell>
        <mxCell id="mhscMTKuZYYwsaxTIH_v-7" value="" style="html=1;points=[[0,0,0,0,5],[0,1,0,0,-5],[1,0,0,0,5],[1,1,0,0,-5]];perimeter=orthogonalPerimeter;outlineConnect=0;targetShapes=umlLifeline;portConstraint=eastwest;newEdgeStyle={&quot;curved&quot;:0,&quot;rounded&quot;:0};" parent="1" vertex="1">
          <mxGeometry x="795" y="400" width="10" height="40" as="geometry" />
        </mxCell>
        <mxCell id="6Z-OR4mqL3u61Qj2kpZO-4" value="" style="shape=umlDestroy;whiteSpace=wrap;html=1;strokeWidth=3;targetShapes=umlLifeline;" parent="1" vertex="1">
          <mxGeometry x="335" y="820" width="30" height="30" as="geometry" />
        </mxCell>
        <mxCell id="6Z-OR4mqL3u61Qj2kpZO-6" value="" style="shape=umlDestroy;whiteSpace=wrap;html=1;strokeWidth=3;targetShapes=umlLifeline;" parent="1" vertex="1">
          <mxGeometry x="65" y="950" width="30" height="30" as="geometry" />
        </mxCell>
        <mxCell id="1NALEkTZ1CZepBtCz4jT-3" value="createOrEditeOrder(order)" style="html=1;verticalAlign=bottom;endArrow=block;curved=0;rounded=0;" parent="1" edge="1">
          <mxGeometry width="80" relative="1" as="geometry">
            <mxPoint x="484" y="560" as="sourcePoint" />
            <mxPoint x="793.25" y="560" as="targetPoint" />
          </mxGeometry>
        </mxCell>
        <mxCell id="1NALEkTZ1CZepBtCz4jT-4" value="" style="html=1;points=[[0,0,0,0,5],[0,1,0,0,-5],[1,0,0,0,5],[1,1,0,0,-5]];perimeter=orthogonalPerimeter;outlineConnect=0;targetShapes=umlLifeline;portConstraint=eastwest;newEdgeStyle={&quot;curved&quot;:0,&quot;rounded&quot;:0};" parent="1" vertex="1">
          <mxGeometry x="795" y="560" width="10" height="40" as="geometry" />
        </mxCell>
        <mxCell id="1NALEkTZ1CZepBtCz4jT-5" value="return order Id" style="html=1;verticalAlign=bottom;endArrow=open;dashed=1;endSize=8;curved=0;rounded=0;" parent="1" edge="1">
          <mxGeometry x="0.0017" relative="1" as="geometry">
            <mxPoint x="801.5" y="600" as="sourcePoint" />
            <mxPoint x="484.5" y="600" as="targetPoint" />
            <mxPoint as="offset" />
          </mxGeometry>
        </mxCell>
        <mxCell id="1NALEkTZ1CZepBtCz4jT-19" value="MailService" style="shape=umlLifeline;perimeter=lifelinePerimeter;whiteSpace=wrap;html=1;container=1;dropTarget=0;collapsible=0;recursiveResize=0;outlineConnect=0;portConstraint=eastwest;newEdgeStyle={&quot;curved&quot;:0,&quot;rounded&quot;:0};" parent="1" vertex="1">
          <mxGeometry x="590" y="640" width="100" height="310" as="geometry" />
        </mxCell>
        <mxCell id="1NALEkTZ1CZepBtCz4jT-27" value="" style="html=1;points=[[0,0,0,0,5],[0,1,0,0,-5],[1,0,0,0,5],[1,1,0,0,-5]];perimeter=orthogonalPerimeter;outlineConnect=0;targetShapes=umlLifeline;portConstraint=eastwest;newEdgeStyle={&quot;curved&quot;:0,&quot;rounded&quot;:0};" parent="1NALEkTZ1CZepBtCz4jT-19" vertex="1">
          <mxGeometry x="45" y="80" width="10" height="160" as="geometry" />
        </mxCell>
        <mxCell id="1NALEkTZ1CZepBtCz4jT-29" value="" style="html=1;points=[[0,0,0,0,5],[0,1,0,0,-5],[1,0,0,0,5],[1,1,0,0,-5]];perimeter=orthogonalPerimeter;outlineConnect=0;targetShapes=umlLifeline;portConstraint=eastwest;newEdgeStyle={&quot;curved&quot;:0,&quot;rounded&quot;:0};" parent="1NALEkTZ1CZepBtCz4jT-19" vertex="1">
          <mxGeometry x="50" y="120" width="10" height="40" as="geometry" />
        </mxCell>
        <mxCell id="1NALEkTZ1CZepBtCz4jT-30" value="generateMailNotification()" style="html=1;align=left;spacingLeft=2;endArrow=block;rounded=0;edgeStyle=orthogonalEdgeStyle;curved=0;rounded=0;" parent="1NALEkTZ1CZepBtCz4jT-19" target="1NALEkTZ1CZepBtCz4jT-29" edge="1">
          <mxGeometry relative="1" as="geometry">
            <mxPoint x="55" y="100" as="sourcePoint" />
            <Array as="points">
              <mxPoint x="85" y="130" />
            </Array>
          </mxGeometry>
        </mxCell>
        <mxCell id="1NALEkTZ1CZepBtCz4jT-26" value="" style="shape=umlDestroy;whiteSpace=wrap;html=1;strokeWidth=3;targetShapes=umlLifeline;" parent="1" vertex="1">
          <mxGeometry x="625" y="940" width="30" height="30" as="geometry" />
        </mxCell>
        <mxCell id="1NALEkTZ1CZepBtCz4jT-28" value="sendMailNotificatetion(order)" style="html=1;verticalAlign=bottom;endArrow=block;curved=0;rounded=0;" parent="1" edge="1">
          <mxGeometry width="80" relative="1" as="geometry">
            <mxPoint x="480" y="720" as="sourcePoint" />
            <mxPoint x="639.5" y="720" as="targetPoint" />
          </mxGeometry>
        </mxCell>
        <mxCell id="1NALEkTZ1CZepBtCz4jT-31" value="send mail to user" style="html=1;verticalAlign=bottom;endArrow=open;dashed=1;endSize=8;curved=0;rounded=0;" parent="1" edge="1">
          <mxGeometry relative="1" as="geometry">
            <mxPoint x="631.75" y="880" as="sourcePoint" />
            <mxPoint x="88.25" y="880" as="targetPoint" />
          </mxGeometry>
        </mxCell>
        <mxCell id="6Z-OR4mqL3u61Qj2kpZO-5" value="" style="shape=umlDestroy;whiteSpace=wrap;html=1;strokeWidth=3;targetShapes=umlLifeline;" parent="1" vertex="1">
          <mxGeometry x="200" y="820" width="30" height="30" as="geometry" />
        </mxCell>
        <mxCell id="6Z-OR4mqL3u61Qj2kpZO-3" value="" style="shape=umlDestroy;whiteSpace=wrap;html=1;strokeWidth=3;targetShapes=umlLifeline;" parent="1" vertex="1">
          <mxGeometry x="460" y="820" width="30" height="30" as="geometry" />
        </mxCell>
        <mxCell id="1NALEkTZ1CZepBtCz4jT-32" value="return success message" style="html=1;verticalAlign=bottom;endArrow=open;dashed=1;endSize=8;curved=0;rounded=0;" parent="1" edge="1">
          <mxGeometry relative="1" as="geometry">
            <mxPoint x="470" y="760" as="sourcePoint" />
            <mxPoint x="354.5" y="760" as="targetPoint" />
          </mxGeometry>
        </mxCell>
        <mxCell id="1NALEkTZ1CZepBtCz4jT-33" value="return success message" style="html=1;verticalAlign=bottom;endArrow=open;dashed=1;endSize=8;curved=0;rounded=0;" parent="1" edge="1">
          <mxGeometry relative="1" as="geometry">
            <mxPoint x="340.5" y="779.17" as="sourcePoint" />
            <mxPoint x="220" y="779.17" as="targetPoint" />
          </mxGeometry>
        </mxCell>
        <mxCell id="1NALEkTZ1CZepBtCz4jT-34" value="return success message" style="html=1;verticalAlign=bottom;endArrow=open;dashed=1;endSize=8;curved=0;rounded=0;" parent="1" edge="1">
          <mxGeometry relative="1" as="geometry">
            <mxPoint x="210.5" y="800" as="sourcePoint" />
            <mxPoint x="90" y="800" as="targetPoint" />
          </mxGeometry>
        </mxCell>
        <mxCell id="wpOPd4-Tv5nnrYuIiAvW-1" value="Choose Order" style="html=1;verticalAlign=bottom;startArrow=none;endArrow=block;startSize=8;curved=0;rounded=0;entryX=0;entryY=0;entryDx=0;entryDy=5;startFill=0;" edge="1" parent="1">
          <mxGeometry relative="1" as="geometry">
            <mxPoint x="90" y="160.00000000000193" as="sourcePoint" />
            <mxPoint x="215" y="160.00000000000193" as="targetPoint" />
          </mxGeometry>
        </mxCell>
      </root>
    </mxGraphModel>
  </diagram>
</mxfile>
